name rise30.6535peak61.5555fall82.9339.mot
datacolumns 19
datarows 20
range 18.74160400000000 18.77326200000000
endheader
time	ground_force1_vx	ground_force1_vy	ground_force1_vz	ground_force1_px	ground_force1_py	ground_force1_pz	ground_force2_vx	ground_force2_vy	ground_force2_vz	ground_force2_px	ground_force2_py	ground_force2_pz	ground_torque1_x	ground_torque1_y	ground_torque1_z	ground_torque2_x	ground_torque2_y	ground_torque2_z	
18.74160400000000	-50.37683300000000	806.56573700000001	53.75379900000000	0.13874400000000	0.00000000000000	0.13353000000000	-1.95038900000000	4.08963800000000	1.72738300000000	0.00000000000000	0.00000000000000	0.00000000000000	0.00000000000000	26.64490800000000	0.00000000000000	0.00000000000000	0.63139200000000	0.00000000000000	
18.74325400000000	-50.63935200000000	804.87484500000005	53.74102100000000	0.13813500000000	0.00000000000000	0.13354500000000	-3.12804600000000	7.39652700000000	2.89551200000000	0.00000000000000	0.00000000000000	0.00000000000000	0.00000000000000	26.59544000000000	0.00000000000000	0.00000000000000	1.07019300000000	0.00000000000000	
18.74492100000000	-50.91655100000000	803.11617000000001	53.72001800000000	0.13753500000000	0.00000000000000	0.13355700000000	-4.46268600000000	11.32656500000000	4.24532100000000	0.00000000000000	0.00000000000000	0.00000000000000	0.00000000000000	26.54835300000000	0.00000000000000	0.00000000000000	1.57947100000000	0.00000000000000	
18.74658800000000	-51.20923300000000	801.28895799999998	53.69053800000000	0.13694500000000	0.00000000000000	0.13356500000000	-5.91495700000000	15.82003700000000	5.74461900000000	0.00000000000000	0.00000000000000	0.00000000000000	0.00000000000000	26.50380400000000	0.00000000000000	0.00000000000000	2.14773300000000	0.00000000000000	
18.74825500000000	-51.51816300000000	799.39236500000004	53.65231200000000	0.13636400000000	0.00000000000000	0.13356900000000	-7.43553200000000	20.78781800000000	7.35094100000000	0.00000000000000	0.00000000000000	0.00000000000000	0.00000000000000	26.46193400000000	0.00000000000000	0.00000000000000	2.75959600000000	0.00000000000000	
18.74992700000000	-51.84406500000000	797.42545399999995	53.60505700000000	0.13579200000000	0.00000000000000	0.13357000000000	-8.96839700000000	26.11789200000000	9.01438500000000	0.38767700000000	0.00000000000000	-0.04332900000000	0.00000000000000	26.42286800000000	0.00000000000000	0.00000000000000	6.50289800000000	0.00000000000000	
18.75159900000000	-52.18762000000000	795.38719700000001	53.54847600000000	0.13522700000000	0.00000000000000	0.13356600000000	-10.45498300000000	31.68447800000000	10.68135000000000	0.39066900000000	0.00000000000000	-0.04392500000000	0.00000000000000	26.38671200000000	0.00000000000000	0.00000000000000	7.75333000000000	0.00000000000000	
18.75325600000000	-52.54945400000000	793.27646800000002	53.48225400000000	0.13466900000000	0.00000000000000	0.13355900000000	-11.83863900000000	37.35858500000000	12.29867500000000	0.39354200000000	0.00000000000000	-0.04451200000000	0.00000000000000	26.35355300000000	0.00000000000000	0.00000000000000	8.98159900000000	0.00000000000000	
18.75492100000000	-52.93013900000000	791.09204799999998	53.40606400000000	0.13411800000000	0.00000000000000	0.13354800000000	-13.06881600000000	43.01848200000000	13.81761700000000	0.39629100000000	0.00000000000000	-0.04509400000000	0.00000000000000	26.32346000000000	0.00000000000000	0.00000000000000	10.15162100000000	0.00000000000000	
18.75659200000000	-53.33018400000000	788.83262000000002	53.31956200000000	0.13357200000000	0.00000000000000	0.13353200000000	-14.10443800000000	48.55873800000000	15.19715500000000	0.39891100000000	0.00000000000000	-0.04567100000000	0.00000000000000	26.29648000000000	0.00000000000000	0.00000000000000	11.23233500000000	0.00000000000000	
18.75826200000000	-53.75003400000000	786.49676899999997	53.22239000000000	0.13303000000000	0.00000000000000	0.13351300000000	-14.91612800000000	53.89686200000000	16.40628400000000	0.40139900000000	0.00000000000000	-0.04624500000000	0.00000000000000	26.27264000000000	0.00000000000000	0.00000000000000	12.19954200000000	0.00000000000000	
18.75992500000000	-54.19006100000000	784.08298400000001	53.11417600000000	0.13249200000000	0.00000000000000	0.13349000000000	-15.48717400000000	58.97714700000000	17.42518000000000	0.40375400000000	0.00000000000000	-0.04681800000000	0.00000000000000	26.25194500000000	0.00000000000000	0.00000000000000	13.03692500000000	0.00000000000000	
18.76160100000000	-54.65056200000000	781.58965799999999	52.99453400000000	0.13195700000000	0.00000000000000	0.13346200000000	-15.81331500000000	63.77170600000000	18.24526900000000	0.40597600000000	0.00000000000000	-0.04739000000000	0.00000000000000	26.23437900000000	0.00000000000000	0.00000000000000	13.73628100000000	0.00000000000000	
18.76325300000000	-55.13175100000000	779.01508899999999	52.86306800000000	0.13142300000000	0.00000000000000	0.13343000000000	-15.90154000000000	68.27906100000000	18.86836100000000	0.40806300000000	0.00000000000000	-0.04796200000000	0.00000000000000	26.21990200000000	0.00000000000000	0.00000000000000	14.29703800000000	0.00000000000000	
18.76492800000000	-55.63375800000000	776.35748200000000	52.71936600000000	0.13088900000000	0.00000000000000	0.13339400000000	-15.76815700000000	72.52078500000000	19.30507400000000	0.41001600000000	0.00000000000000	-0.04853400000000	0.00000000000000	26.20845200000000	0.00000000000000	0.00000000000000	14.72522400000000	0.00000000000000	
18.76659500000000	-56.15662200000000	773.61495100000002	52.56300800000000	0.13035500000000	0.00000000000000	0.13335400000000	-15.43641800000000	76.53681000000000	19.57280500000000	0.41183600000000	0.00000000000000	-0.04910700000000	0.00000000000000	26.19994400000000	0.00000000000000	0.00000000000000	15.03206200000000	0.00000000000000	
18.76825900000000	-56.70028900000000	770.78552200000001	52.39356500000000	0.12982000000000	0.00000000000000	0.13331000000000	-14.93397400000000	80.38003399999999	19.69348400000000	0.41352600000000	0.00000000000000	-0.04968000000000	0.00000000000000	26.19426800000000	0.00000000000000	0.00000000000000	15.23237400000000	0.00000000000000	
18.76992000000000	-57.26460400000000	767.86713499999996	52.21059800000000	0.12928100000000	0.00000000000000	0.13326200000000	-14.29040500000000	84.11078000000001	19.69134900000000	0.41508700000000	0.00000000000000	-0.05025400000000	0.00000000000000	26.19129200000000	0.00000000000000	0.00000000000000	15.34295800000000	0.00000000000000	
18.77160600000000	-57.84931300000000	764.85765200000003	52.01366400000000	0.12873900000000	0.00000000000000	0.13320900000000	-13.53499300000000	87.79159300000001	19.59090600000000	0.41652200000000	0.00000000000000	-0.05082900000000	0.00000000000000	26.19085900000000	0.00000000000000	0.00000000000000	15.38107500000000	0.00000000000000	
18.77326200000000	-58.45405200000000	761.75485600000002	51.80231300000000	0.12819200000000	0.00000000000000	0.13315300000000	-12.69490200000000	91.48271699999999	19.41521000000000	0.41783500000000	0.00000000000000	-0.05140400000000	0.00000000000000	26.19279100000000	0.00000000000000	0.00000000000000	15.36316300000000	0.00000000000000	
